<?xml version="1.0" encoding="UTF-8"?>
<svg id="Layer_2" data-name="Layer 2" xmlns="http://www.w3.org/2000/svg" viewBox="0 0 148.33 159.98">
  <defs>
    <style>
      .cls-1 {
        fill: #f26c21;
      }

      .cls-2 {
        stroke: #fff;
        stroke-width: 8px;
      }

      .cls-2, .cls-3 {
        fill: none;
        stroke-miterlimit: 10;
      }

      .cls-3 {
        stroke: #f26c21;
        stroke-width: 3px;
      }
    </style>
  </defs>
  <g id="Layer_1-2" data-name="Layer 1">
    <g>
      <g>
        <path class="cls-1" d="M47.91,113.85c-4.41.02-5.07-2.94-4.15-6.57.97-5.01,1.57-10.17,2.7-15.09.64-3.05,2.29-5.76,3.05-8.77,1.14-4.32,2.15-9.68,2.79-13.81,1.19-5.33-1.86-7.85-7.18-6.33-1.93.63-6.19,2.31-5.34-1.49,2.85-7.1,10.08-7.66,16.86-5.96,2.52.46,4.44,2.48,6.9,2.99,2.32.34,5.65-1.48,7.6.7,1.72,1.87.53,8.04-2.6,8.27-3.1.44-5.68-3.91-8.69-1.65-1.06.81-1.19,2.04-1.5,3.43-.23,1.1-.49,2.38-.76,3.73-.84,4.81-2.16,9.59-2.55,14.09-.02,1.83,0,3.75-.4,5.56-1.19,5.37-1.68,11.24-2.92,16.54-.42,1.93-1.4,4.22-3.64,4.35h-.17ZM67.97,60.6c-5.36,2.15-7.88-2.11-12.67-3.08-4.33-.92-9.15-1.34-12.19,1.87-.47.5-.73,1.01-.63,1.31.08.31.5.43,1.12.38,1.45-.16,2.72-.52,4.18-.47,4.97-.01,7.93,3.57,6.44,8.37-.8,4.3-2.47,11.64-3.26,16.61-.02,2.8,2.01.97,2.13-.71.74-3.64,2.18-10.75,3.18-15.71.44-4.37,3.15-6.84,7.74-5.76,1.71.27,3.37,2.69,5.04,1.66,1.58-1.13,1.75-5.11-.92-4.5l-.15.03ZM52.94,89.3c-1.25-.67-3.7-.79-3.78,1.03-.8,3.9-2.69,13.33-3.73,18.48-.19.97-.44,2.02.47,2.63,1.05.58,2.88.83,3.35-.41.88-3.59,2.26-11.2,3.22-15.76.27-1.5.8-3.61.92-4.9.02-.46-.07-.78-.36-1l-.09-.07Z"/>
        <path class="cls-3" d="M70.94,81.51l-5.08-7.23c-.18-.26.15-.57.4-.37l14.5,11.89c.13.1.13.3.01.41l-13.89,13.18c-.23.22-.59-.07-.42-.34l4.81-8c1.79-2.97,1.65-6.71-.34-9.55Z"/>
        <path class="cls-3" d="M33.44,81.51l5.08-7.23c.18-.26-.15-.57-.4-.37l-14.5,11.89c-.13.1-.13.3-.01.41l13.89,13.18c.23.22.59-.07.42-.34l-4.81-8c-1.79-2.97-1.65-6.71.34-9.55Z"/>
      </g>
      <path class="cls-2" d="M4,13.15v133.68c0,6.96,7.55,11.37,13.71,7.99l121.87-66.84c6.34-3.48,6.34-12.51,0-15.99L17.71,5.16c-6.15-3.38-13.71,1.03-13.71,7.99Z"/>
    </g>
  </g>
</svg>