<?xml version="1.0" encoding="UTF-8"?>
<svg id="Layer_1" data-name="Layer 1" xmlns="http://www.w3.org/2000/svg" viewBox="0 0 738.8 247.15">
  <defs>
    <style>
      .cls-1 {
        fill: #f26c21;
      }

      .cls-2 {
        stroke-width: 8px;
      }

      .cls-2, .cls-3 {
        stroke: #fff;
      }

      .cls-2, .cls-3, .cls-4 {
        fill: none;
        stroke-miterlimit: 10;
      }

      .cls-5 {
        fill: #fff;
      }

      .cls-3 {
        stroke-linecap: round;
        stroke-width: 4px;
      }

      .cls-4 {
        stroke: #f26c21;
        stroke-width: 3px;
      }
    </style>
  </defs>
  <g>
    <path class="cls-2" d="M149.66,73.06c-2.07,2.67-1.23,6.53,1.78,8.06,6.84,3.49,12.14,7.93,15.9,13.33,4.89,7.01,7.34,14.23,7.34,21.68,0,13.58-4.78,23.62-14.34,30.11-9.56,6.5-23.4,9.75-41.5,9.75h-59.72c-2.94,0-5.32-2.38-5.32-5.32V16.99c0-2.94,2.38-5.32,5.32-5.32h49.43c7.15,0,13.69.73,19.6,2.19,5.91,1.46,10.98,3.72,15.22,6.79,4.23,3.07,7.48,7.01,9.75,11.83,2.26,4.82,3.39,10.59,3.39,17.3,0,5.84-.8,10.99-2.41,15.44-.96,2.66-2.44,5.27-4.43,7.85ZM84.44,68.32c0,2.94,2.38,5.32,5.32,5.32h15.48c2.92,0,5.69-.29,8.32-.88,2.63-.58,4.93-1.6,6.9-3.07,1.97-1.46,3.5-3.47,4.6-6.02,1.09-2.55,1.64-5.73,1.64-9.53,0-4.38-.91-7.77-2.74-10.18-1.83-2.41-4.05-4.2-6.68-5.37-2.63-1.17-5.47-1.86-8.54-2.08-3.07-.22-5.84-.33-8.32-.33h-10.67c-2.94,0-5.32,2.38-5.32,5.32v26.81ZM116.2,131.46c3.07,0,6.2-.15,9.42-.44,3.21-.29,6.13-.96,8.76-1.98,2.63-1.03,4.78-2.5,6.46-4.41,1.68-1.91,2.52-4.48,2.52-7.72,0-7.05-2.19-11.94-6.57-14.66-4.38-2.72-11.17-4.08-20.37-4.08h-9.64c-2.05,0-4.35.26-6.9.77-2.56.51-5,1.58-7.34,3.2-2.34,1.62-4.27,3.89-5.8,6.83s-2.3,6.83-2.3,11.68v5.48c0,2.94,2.38,5.32,5.32,5.32h26.43Z"/>
    <path class="cls-2" d="M242.17,131.46c3.79,0,6.71-.91,8.76-2.74,2.04-1.83,3.54-4.07,4.49-6.7.95-2.63,1.5-5.49,1.64-8.57.14-3.08.22-5.93.22-8.57v-38.61c0-2.94,2.38-5.32,5.32-5.32h20.02c2.94,0,5.32,2.38,5.32,5.32v84.4c0,2.94-2.38,5.32-5.32,5.32h-17.33c-2.17,0-4.13-1.32-4.94-3.33l-.32-.79c-1.31-3.26-5.4-4.42-8.16-2.24-.31.25-.63.48-.94.72-1.9,1.45-4.13,2.75-6.68,3.91-2.56,1.16-5.29,1.74-8.21,1.74-7.3,0-13.25-1.17-17.85-3.5-4.6-2.33-8.18-5.58-10.73-9.75-2.56-4.16-4.27-9.12-5.15-14.89-.88-5.77-1.31-12.01-1.31-18.72v-42.86c0-2.94,2.38-5.32,5.32-5.32h20.67c2.94,0,5.32,2.38,5.32,5.32v44.54c0,1.91.14,4.07.44,6.48.29,2.42.84,4.65,1.64,6.7.8,2.05,1.82,3.81,3.07,5.27,1.24,1.46,2.81,2.2,4.71,2.2Z"/>
    <path class="cls-2" d="M319.59,60.94h20.02c2.94,0,5.32,2.38,5.32,5.32v84.4c0,2.94-2.38,5.32-5.32,5.32h-20.02c-2.94,0-5.32-2.38-5.32-5.32v-84.4c0-2.94,2.38-5.32,5.32-5.32ZM314.71,30.5c0-4.23,1.42-7.81,4.27-10.73,2.85-2.92,6.39-4.38,10.62-4.38s7.81,1.46,10.73,4.38c2.92,2.92,4.38,6.5,4.38,10.73s-1.46,7.77-4.38,10.62c-2.92,2.85-6.5,4.27-10.73,4.27s-7.77-1.42-10.62-4.27c-2.85-2.85-4.27-6.38-4.27-10.62Z"/>
    <path class="cls-2" d="M396.16,155.99h-19.58c-2.94,0-5.32-2.38-5.32-5.32V9.32c0-2.94,2.38-5.32,5.32-5.32h19.58c2.94,0,5.32,2.38,5.32,5.32v141.34c0,2.94-2.38,5.32-5.32,5.32Z"/>
    <path class="cls-2" d="M495.71,152.54c-1.27-3.36-5.37-4.45-8.25-2.32-.03.02-.06.04-.09.07-1.9,1.46-4.35,2.78-7.34,3.94-2.99,1.17-6.61,1.75-10.84,1.75-7.3,0-13.54-1.17-18.72-3.5-5.18-2.33-9.46-5.58-12.81-9.75-3.36-4.16-5.84-9.05-7.45-14.67-1.61-5.62-2.41-11.79-2.41-18.51s1.28-12.66,3.83-18.29c2.55-5.62,6.09-10.47,10.62-14.56,4.52-4.09,9.75-7.3,15.66-9.64,5.91-2.33,12.3-3.5,19.16-3.5,3.07,0,5.58-.77,7.56-2.3,1.97-1.53,3.54-3.47,4.71-5.8,1.17-2.33,2.01-4.78,2.52-7.34.51-2.55.77-4.93.77-7.12V10.2c0-2.94,2.38-5.32,5.32-5.32h20.02c2.94,0,5.32,2.38,5.32,5.32v140.47c0,2.94-2.38,5.32-5.32,5.32h-17.28c-2.21,0-4.2-1.37-4.98-3.44h0ZM459.34,110.87c0,1.17.07,2.81.22,4.93.14,2.12.58,4.27,1.31,6.46.73,2.19,1.9,4.09,3.5,5.69,1.6,1.61,3.94,2.41,7.01,2.41s5.91-.36,8.1-1.09c2.19-.73,4.08-1.61,5.69-2.63,1.61-1.02,2.96-2.15,4.05-3.39.62-.7,1.25-1.39,1.89-2.07.95-1,1.5-2.32,1.5-3.7v-24.06c0-2.94-2.38-5.32-5.32-5.32h-4.53c-2.92,0-5.77.19-8.54.55-2.78.37-5.26,1.28-7.45,2.74-2.19,1.46-3.98,3.72-5.37,6.79-1.39,3.07-2.08,7.3-2.08,12.7Z"/>
    <path class="cls-1" d="M593.53,113.86c-4.41.02-5.07-2.94-4.15-6.57.97-5.01,1.57-10.17,2.7-15.09.64-3.05,2.29-5.76,3.05-8.77,1.14-4.32,2.15-9.68,2.79-13.81,1.19-5.33-1.86-7.85-7.18-6.33-1.93.63-6.19,2.31-5.34-1.49,2.85-7.1,10.08-7.66,16.86-5.96,2.52.46,4.44,2.48,6.9,2.99,2.32.34,5.65-1.48,7.6.7,1.72,1.87.53,8.04-2.6,8.27-3.1.44-5.68-3.91-8.69-1.65-1.06.81-1.19,2.04-1.5,3.43-.23,1.1-.49,2.38-.76,3.73-.84,4.81-2.16,9.59-2.55,14.09-.02,1.83,0,3.75-.4,5.56-1.19,5.37-1.68,11.24-2.92,16.54-.42,1.93-1.4,4.22-3.64,4.35h-.17ZM613.59,60.61c-5.36,2.15-7.88-2.11-12.67-3.08-4.33-.92-9.15-1.34-12.19,1.87-.47.5-.73,1.01-.63,1.31.08.31.5.43,1.12.38,1.45-.16,2.72-.52,4.18-.47,4.97-.01,7.93,3.57,6.44,8.37-.8,4.3-2.47,11.64-3.26,16.61-.02,2.8,2.01.97,2.13-.71.74-3.64,2.18-10.75,3.18-15.71.44-4.37,3.15-6.84,7.74-5.76,1.71.27,3.37,2.69,5.04,1.66,1.58-1.13,1.75-5.11-.92-4.5l-.15.03ZM598.55,89.3c-1.25-.67-3.7-.79-3.78,1.03-.8,3.9-2.69,13.33-3.73,18.48-.19.97-.44,2.02.47,2.63,1.05.58,2.88.83,3.35-.41.88-3.59,2.26-11.2,3.22-15.76.27-1.5.8-3.61.92-4.9.02-.46-.07-.78-.36-1l-.09-.07Z"/>
    <path class="cls-2" d="M549.62,13.16v133.68c0,6.96,7.55,11.37,13.71,7.99l121.87-66.84c6.34-3.48,6.34-12.51,0-15.99L563.32,5.16c-6.15-3.38-13.71,1.03-13.71,7.99Z"/>
  </g>
  <g>
    <path class="cls-5" d="M26.7,230.77v7.42h-4.9v-7.49l-7.98-15.58h5.64l3.4,6.93c.14.3.33.54.58.72.25.18.51.28.79.3.28.02.56-.04.83-.19.27-.15.5-.43.69-.82l3.3-6.93h5.67l-8.01,15.65Z"/>
    <path class="cls-5" d="M41.33,222.65c1.1,0,2.13.21,3.1.63s1.81.99,2.54,1.71c.72.72,1.29,1.57,1.71,2.54.42.97.63,2,.63,3.1s-.21,2.13-.63,3.1c-.42.97-.99,1.81-1.71,2.52-.72.71-1.57,1.28-2.54,1.7s-2,.63-3.1.63-2.16-.21-3.13-.63-1.81-.99-2.54-1.7-1.29-1.55-1.71-2.52c-.42-.97-.63-2-.63-3.1s.21-2.13.63-3.1.99-1.81,1.71-2.54c.72-.72,1.57-1.29,2.54-1.71s2.01-.63,3.13-.63ZM41.33,234.55c.51,0,.95-.12,1.31-.37.36-.25.67-.55.91-.93.25-.37.43-.79.54-1.24s.18-.9.18-1.35-.06-.93-.18-1.4-.3-.89-.54-1.28c-.24-.39-.55-.69-.91-.93-.36-.23-.8-.35-1.31-.35s-.99.12-1.37.35c-.37.23-.68.54-.93.93-.25.38-.42.81-.53,1.28s-.16.93-.16,1.4.05.89.16,1.35.28.87.53,1.24c.24.37.55.68.93.93.37.25.83.37,1.37.37Z"/>
    <path class="cls-5" d="M59.18,234.27c.61,0,1.07-.15,1.4-.44.33-.29.57-.65.72-1.07.15-.42.24-.88.26-1.37.02-.49.04-.95.04-1.37v-7.02h4.9v15.19h-4.19l-.74-1.84c-.3.37-.63.68-.98.94-.3.23-.66.44-1.07.62-.41.18-.85.28-1.31.28-1.17,0-2.12-.19-2.85-.56-.74-.37-1.31-.89-1.72-1.56s-.68-1.46-.82-2.38-.21-1.92-.21-2.99v-7.7h5v7.97c0,.3.02.65.07,1.04s.13.74.26,1.07c.13.33.29.61.49.84.2.23.45.35.75.35Z"/>
    <path class="cls-5" d="M75.77,238.19h-4.9v-15.19h4.2l.74,1.86c.65-.75,1.46-1.27,2.42-1.56.96-.29,2.16-.38,3.6-.26v4.1c-.56-.07-1.07-.11-1.54-.12s-.86-.02-1.19-.02c-.89,0-1.66.35-2.31,1.05-.65.7-.99,1.7-1.02,3.01v7.14Z"/>
    <path class="cls-1" d="M105.41,230.49c-.65,0-1.2.09-1.63.26-.43.17-.78.4-1.03.68-.26.28-.44.59-.54.93s-.16.67-.16,1v4.83h-4.9v-23.07h9.52c1.17,0,2.23.21,3.2.61.97.41,1.8.97,2.48,1.68.69.71,1.23,1.54,1.61,2.49.39.94.58,1.95.58,3.03,0,1.24-.26,2.33-.77,3.27-.51.94-1.19,1.73-2.03,2.36-.84.63-1.81,1.11-2.9,1.43-1.1.33-2.24.49-3.43.49ZM105.1,226.57c.63-.05,1.22-.14,1.77-.3.55-.15,1.02-.37,1.42-.66.4-.29.71-.66.93-1.1.22-.44.33-1,.33-1.67,0-.28-.02-.63-.07-1.06-.05-.43-.19-.85-.42-1.25-.23-.41-.6-.75-1.1-1.04-.5-.29-1.22-.44-2.15-.44h-3.75v7.52h3.04Z"/>
    <path class="cls-1" d="M122.91,238.19h-4.9v-15.19h4.2l.74,1.86c.65-.75,1.46-1.27,2.42-1.56.96-.29,2.16-.38,3.6-.26v4.1c-.56-.07-1.07-.11-1.54-.12s-.86-.02-1.19-.02c-.89,0-1.66.35-2.31,1.05-.65.7-.99,1.7-1.02,3.01v7.14Z"/>
    <path class="cls-1" d="M138.77,222.65c1.1,0,2.13.21,3.1.63s1.81.99,2.54,1.71c.72.72,1.29,1.57,1.71,2.54.42.97.63,2,.63,3.1s-.21,2.13-.63,3.1c-.42.97-.99,1.81-1.71,2.52-.72.71-1.57,1.28-2.54,1.7s-2,.63-3.1.63-2.16-.21-3.13-.63-1.81-.99-2.54-1.7-1.29-1.55-1.71-2.52c-.42-.97-.63-2-.63-3.1s.21-2.13.63-3.1.99-1.81,1.71-2.54c.72-.72,1.57-1.29,2.54-1.71s2.01-.63,3.13-.63ZM138.77,234.55c.51,0,.95-.12,1.31-.37.36-.25.67-.55.91-.93.25-.37.43-.79.54-1.24s.18-.9.18-1.35-.06-.93-.18-1.4-.3-.89-.54-1.28c-.24-.39-.55-.69-.91-.93-.36-.23-.8-.35-1.31-.35s-.99.12-1.37.35c-.37.23-.68.54-.93.93-.25.38-.42.81-.53,1.28s-.16.93-.16,1.4.05.89.16,1.35.28.87.53,1.24c.24.37.55.68.93.93.37.25.83.37,1.37.37Z"/>
    <path class="cls-1" d="M150.25,223h4.9v16.83c0,1.05-.2,2.01-.59,2.87-.4.86-.95,1.6-1.66,2.22-.71.62-1.56,1.12-2.56,1.5-.99.39-2.08.62-3.27.72v-3.46c.97-.12,1.74-.58,2.32-1.38.58-.8.87-1.88.87-3.24v-16.07ZM150.39,218.14c0-.68.23-1.25.68-1.71s1.01-.7,1.69-.7,1.24.23,1.7.7c.46.47.69,1.04.69,1.71s-.23,1.24-.69,1.7c-.46.46-1.03.68-1.7.68s-1.23-.23-1.69-.68-.68-1.02-.68-1.7Z"/>
    <path class="cls-1" d="M165.61,232.31c-.63,0-1.06.12-1.28.37-.22.25-.33.47-.33.68,0,.19.04.36.12.51.08.15.25.29.51.4.26.12.62.21,1.08.28.47.07,1.07.1,1.82.1.58,0,1.26-.06,2.03-.19.77-.13,1.41-.27,1.92-.44v3.75c-.47.23-1.13.43-1.98.58-.85.15-1.65.23-2.4.23-1.26,0-2.4-.21-3.41-.63-1.02-.42-1.88-.98-2.61-1.69-.72-.71-1.28-1.55-1.68-2.51-.4-.97-.6-2-.6-3.09s.21-2.13.63-3.11c.42-.98,1.01-1.83,1.77-2.55s1.65-1.29,2.68-1.71c1.03-.42,2.15-.63,3.36-.63.7,0,1.4.11,2.1.31.7.21,1.33.52,1.89.94.56.42,1.01.94,1.36,1.55.35.62.52,1.33.52,2.14,0,1.42-.4,2.55-1.21,3.38-.8.84-1.94,1.28-3.41,1.33h-2.91ZM168.27,227.52c0-.09,0-.2-.02-.32-.01-.12-.06-.22-.16-.31-.09-.09-.23-.17-.42-.23-.19-.06-.46-.09-.8-.09-.28,0-.57.02-.88.07-.3.05-.6.15-.89.31-.29.16-.56.41-.81.74-.25.33-.44.77-.58,1.33h2.42c.49,0,.88-.05,1.17-.16.29-.11.51-.24.65-.4.14-.16.23-.33.26-.51.04-.17.05-.32.05-.44Z"/>
    <path class="cls-1" d="M188.92,237.8c-.26.12-.56.23-.91.34s-.72.19-1.12.26c-.4.07-.8.12-1.21.16-.41.04-.79.05-1.14.05-1.26,0-2.41-.21-3.44-.63-1.03-.42-1.91-.98-2.64-1.69s-1.29-1.55-1.69-2.51c-.4-.97-.6-2-.6-3.09s.22-2.13.65-3.11c.44-.98,1.03-1.83,1.8-2.55.76-.72,1.66-1.29,2.69-1.71s2.15-.63,3.36-.63c.98,0,1.78.09,2.4.26.62.17,1.23.35,1.84.54v3.72c-.56-.23-1.13-.39-1.72-.47-.58-.08-1.28-.12-2.1-.12-.7,0-1.31.12-1.82.35s-.93.53-1.26.91c-.33.37-.57.8-.72,1.27-.15.48-.23.97-.23,1.48,0,.44.06.9.19,1.38.13.48.34.92.63,1.32.29.41.69.74,1.19.99.5.26,1.13.38,1.87.38.58,0,1.25-.06,2.01-.17.76-.12,1.41-.27,1.94-.46v3.74Z"/>
    <path class="cls-1" d="M191.76,223h3.22v-4.55h4.9v4.55h3.71v3.92h-3.71v3.62c0,.84.04,1.53.12,2.06.08.53.2.94.37,1.23.16.29.38.49.65.6.27.11.58.16.93.16.65,0,1.36-.13,2.13-.38l-.07,4.03c-.44.12-.86.19-1.26.23-.4.04-.78.05-1.16.05-1.19,0-2.2-.21-3.03-.61-.83-.41-1.51-.94-2.05-1.61-.54-.67-.93-1.43-1.17-2.29-.25-.86-.37-1.75-.37-2.66v-1.64c0-.68-.12-1.2-.35-1.58-.23-.37-.52-.65-.86-.82-.34-.17-.69-.28-1.05-.32-.36-.04-.68-.05-.96-.05v-3.92Z"/>
    <path class="cls-1" d="M206.98,226.89c0-.7.16-1.32.49-1.87.32-.55.79-1.01,1.39-1.4.6-.39,1.33-.68,2.17-.89.85-.21,1.78-.32,2.81-.32.33-.02.72-.02,1.19,0,.4.02.9.07,1.51.12.61.06,1.32.16,2.13.3v3.88c-.82-.12-1.5-.21-2.05-.28-.55-.07-1.16-.11-1.84-.11-.23,0-.51,0-.84.02-.33.01-.64.05-.94.11-.3.06-.57.16-.79.3-.22.14-.33.33-.33.56,0,.26.14.47.41.65.27.17.61.34,1.02.49.41.15.84.29,1.29.4.45.12.85.25,1.2.38.68.26,1.3.51,1.85.75.55.24,1.02.54,1.41.89.39.35.69.78.9,1.3.21.51.32,1.17.32,1.96,0,.7-.17,1.33-.51,1.89-.34.56-.82,1.03-1.43,1.42-.61.39-1.35.68-2.21.88-.86.2-1.79.3-2.81.3-.33.02-.73.02-1.2,0-.4-.02-.9-.07-1.52-.12-.62-.06-1.34-.16-2.15-.3v-3.88c.77.16,1.49.27,2.15.31.67.05,1.18.07,1.56.07.71,0,1.27-.03,1.7-.09.42-.06.75-.13.97-.23.22-.09.37-.2.44-.31.07-.12.11-.23.11-.35,0-.23-.18-.45-.54-.65-.36-.2-.79-.38-1.29-.56-.5-.17-1.02-.33-1.54-.47-.52-.14-.94-.27-1.24-.38-1.12-.44-2.03-1.04-2.73-1.79-.7-.75-1.05-1.74-1.05-2.97Z"/>
    <path class="cls-5" d="M234.95,230.84v-3.92h11.9v3.92h-11.9Z"/>
    <path class="cls-5" d="M274.08,230.77v7.42h-4.9v-7.49l-7.98-15.58h5.64l3.4,6.93c.14.3.33.54.58.72.25.18.51.28.79.3.28.02.56-.04.83-.19.27-.15.5-.43.69-.82l3.3-6.93h5.67l-8.01,15.65Z"/>
    <path class="cls-5" d="M288.71,222.65c1.1,0,2.13.21,3.1.63s1.81.99,2.54,1.71c.72.72,1.29,1.57,1.71,2.54.42.97.63,2,.63,3.1s-.21,2.13-.63,3.1c-.42.97-.99,1.81-1.71,2.52-.72.71-1.57,1.28-2.54,1.7s-2,.63-3.1.63-2.16-.21-3.13-.63-1.81-.99-2.54-1.7-1.29-1.55-1.71-2.52c-.42-.97-.63-2-.63-3.1s.21-2.13.63-3.1.99-1.81,1.71-2.54c.72-.72,1.57-1.29,2.54-1.71s2.01-.63,3.13-.63ZM288.71,234.55c.51,0,.95-.12,1.31-.37.36-.25.67-.55.91-.93.25-.37.43-.79.54-1.24s.18-.9.18-1.35-.06-.93-.18-1.4-.3-.89-.54-1.28c-.24-.39-.55-.69-.91-.93-.36-.23-.8-.35-1.31-.35s-.99.12-1.37.35c-.37.23-.68.54-.93.93-.25.38-.42.81-.53,1.28s-.16.93-.16,1.4.05.89.16,1.35.28.87.53,1.24c.24.37.55.68.93.93.37.25.83.37,1.37.37Z"/>
    <path class="cls-5" d="M306.56,234.27c.61,0,1.07-.15,1.4-.44.33-.29.57-.65.72-1.07.15-.42.24-.88.26-1.37.02-.49.04-.95.04-1.37v-7.02h4.9v15.19h-4.19l-.74-1.84c-.3.37-.63.68-.98.94-.3.23-.66.44-1.07.62-.41.18-.85.28-1.31.28-1.17,0-2.12-.19-2.85-.56-.74-.37-1.31-.89-1.72-1.56s-.68-1.46-.82-2.38-.21-1.92-.21-2.99v-7.7h5v7.97c0,.3.02.65.07,1.04s.13.74.26,1.07c.13.33.29.61.49.84.2.23.45.35.75.35Z"/>
    <path class="cls-5" d="M323.15,238.19h-4.9v-15.19h4.2l.74,1.86c.65-.75,1.46-1.27,2.42-1.56.96-.29,2.16-.38,3.6-.26v4.1c-.56-.07-1.07-.11-1.54-.12s-.86-.02-1.19-.02c-.89,0-1.66.35-2.31,1.05-.65.7-.99,1.7-1.02,3.01v7.14Z"/>
    <path class="cls-1" d="M361.79,237.95c-.56.19-1.21.32-1.94.4-.73.08-1.7.12-2.89.12-1.61,0-3.19-.22-4.74-.67-1.55-.44-2.93-1.14-4.15-2.1-1.21-.96-2.19-2.18-2.94-3.67-.75-1.49-1.12-3.28-1.12-5.35s.37-3.79,1.12-5.27c.75-1.48,1.73-2.71,2.94-3.67,1.21-.97,2.6-1.69,4.15-2.17,1.55-.48,3.13-.72,4.74-.72.61,0,1.14.02,1.61.05.47.04.89.08,1.28.12.38.05.73.1,1.03.16.3.06.61.12.91.19v4.1c-.63-.09-1.31-.2-2.05-.32-.73-.12-1.66-.17-2.78-.17s-2.21.16-3.19.47c-.98.31-1.83.79-2.54,1.43-.71.64-1.27,1.45-1.66,2.42-.4.97-.6,2.09-.6,3.38,0,1.21.2,2.29.6,3.24.4.95.95,1.74,1.66,2.4.71.65,1.56,1.16,2.54,1.5s2.04.53,3.19.53c.96,0,1.85-.06,2.68-.19.83-.13,1.55-.3,2.15-.51v4.3Z"/>
    <path class="cls-1" d="M372.29,222.65c1.1,0,2.13.21,3.1.63.97.42,1.81.99,2.54,1.71.72.72,1.29,1.57,1.71,2.54s.63,2,.63,3.1-.21,2.13-.63,3.1c-.42.97-.99,1.81-1.71,2.52-.72.71-1.57,1.28-2.54,1.7-.97.42-2,.63-3.1.63s-2.16-.21-3.13-.63-1.81-.99-2.54-1.7-1.29-1.55-1.71-2.52c-.42-.97-.63-2-.63-3.1s.21-2.13.63-3.1.99-1.81,1.71-2.54c.72-.72,1.57-1.29,2.54-1.71s2.01-.63,3.13-.63ZM372.29,234.55c.51,0,.95-.12,1.31-.37.36-.25.67-.55.91-.93.25-.37.43-.79.54-1.24.12-.46.17-.9.17-1.35s-.06-.93-.17-1.4c-.12-.47-.3-.89-.54-1.28-.24-.39-.55-.69-.91-.93-.36-.23-.8-.35-1.31-.35s-.99.12-1.37.35c-.37.23-.68.54-.93.93-.25.38-.42.81-.53,1.28s-.16.93-.16,1.4.05.89.16,1.35.28.87.53,1.24c.24.37.55.68.93.93.37.25.83.37,1.37.37Z"/>
    <path class="cls-1" d="M396.82,231.12v7.07h-4.97l.07-7.7c0-.28-.01-.62-.04-1.03s-.09-.79-.19-1.16c-.1-.36-.27-.68-.49-.94-.22-.27-.51-.4-.88-.4-.25,0-.5.06-.75.18-.24.12-.46.34-.64.68-.18.34-.33.79-.45,1.37-.12.57-.17,1.31-.17,2.22v6.79h-4.9v-15.16h4.17l.73,1.84c.3-.44.74-.86,1.31-1.25.57-.39,1.18-.59,1.84-.59s1.17.06,1.61.17c.44.12.81.28,1.1.5.29.22.54.49.73.8.2.31.39.67.58,1.06l.73-.8c.09-.09.26-.24.49-.43.23-.2.51-.39.84-.59.33-.2.71-.36,1.14-.5.43-.14.9-.21,1.42-.21,1.14,0,2.07.19,2.77.56.7.37,1.24.89,1.61,1.55.37.66.62,1.46.74,2.37.12.92.17,1.92.17,2.99v5.64c0,.57,0,1.05-.02,1.43-.01.38-.02.59-.02.61h-5v-7.7c0-.37-.02-.76-.05-1.17-.04-.41-.11-.79-.23-1.14-.12-.35-.27-.64-.47-.88s-.45-.35-.75-.35c-.14,0-.33.04-.56.11-.23.07-.46.24-.67.51s-.4.68-.56,1.24c-.16.56-.24,1.33-.24,2.31Z"/>
    <path class="cls-1" d="M422.79,231.12v7.07h-4.97l.07-7.7c0-.28-.01-.62-.03-1.03-.02-.41-.09-.79-.19-1.16-.1-.36-.27-.68-.49-.94-.22-.27-.51-.4-.88-.4-.25,0-.5.06-.75.18-.24.12-.46.34-.64.68-.18.34-.33.79-.45,1.37-.12.57-.17,1.31-.17,2.22v6.79h-4.9v-15.16h4.17l.74,1.84c.3-.44.74-.86,1.31-1.25.57-.39,1.18-.59,1.84-.59s1.17.06,1.61.17c.44.12.81.28,1.1.5s.54.49.74.8c.2.31.39.67.58,1.06l.74-.8c.09-.09.26-.24.49-.43.23-.2.51-.39.84-.59.33-.2.71-.36,1.14-.5.43-.14.9-.21,1.42-.21,1.14,0,2.07.19,2.76.56.7.37,1.24.89,1.61,1.55.37.66.62,1.46.74,2.37.12.92.17,1.92.17,2.99v5.64c0,.57,0,1.05-.02,1.43-.01.38-.02.59-.02.61h-5v-7.7c0-.37-.02-.76-.05-1.17s-.11-.79-.23-1.14c-.12-.35-.27-.64-.47-.88s-.45-.35-.75-.35c-.14,0-.33.04-.56.11s-.46.24-.67.51-.4.68-.56,1.24c-.16.56-.25,1.33-.25,2.31Z"/>
    <path class="cls-1" d="M442.08,234.27c.61,0,1.07-.15,1.4-.44.33-.29.57-.65.72-1.07.15-.42.24-.88.26-1.37.02-.49.04-.95.04-1.37v-7.02h4.9v15.19h-4.19l-.74-1.84c-.3.37-.63.68-.98.94-.3.23-.66.44-1.07.62s-.85.28-1.31.28c-1.17,0-2.12-.19-2.85-.56s-1.31-.89-1.71-1.56-.68-1.46-.82-2.38c-.14-.92-.21-1.92-.21-2.99v-7.7h5v7.97c0,.3.02.65.07,1.04s.13.74.26,1.07c.13.33.29.61.49.84.2.23.45.35.75.35Z"/>
    <path class="cls-1" d="M460.78,226.96c-.6,0-1.06.15-1.39.44-.32.29-.56.65-.71,1.07-.15.42-.24.88-.26,1.37-.02.49-.03.95-.03,1.37v7h-4.9v-15.16h4.19l.74,1.84c.3-.35.63-.65.98-.9.3-.23.66-.45,1.06-.64.41-.2.84-.29,1.31-.29,1.16,0,2.11.19,2.84.56.73.37,1.3.89,1.71,1.55.41.66.68,1.46.82,2.37.14.92.21,1.92.21,2.99v7.68h-5v-7.95c0-.3-.02-.65-.07-1.03-.05-.38-.13-.74-.26-1.07-.13-.33-.29-.61-.49-.84-.2-.23-.45-.35-.75-.35Z"/>
    <path class="cls-1" d="M471.27,223h4.9v15.19h-4.9v-15.19ZM471.33,218.14c0-.68.23-1.25.68-1.71s1.02-.7,1.7-.7,1.25.23,1.72.7c.47.47.7,1.04.7,1.71s-.23,1.24-.7,1.7c-.47.46-1.04.68-1.72.68s-1.24-.23-1.7-.68-.68-1.02-.68-1.7Z"/>
    <path class="cls-1" d="M479.24,223h3.22v-4.55h4.9v4.55h3.71v3.92h-3.71v3.62c0,.84.04,1.53.12,2.06.08.53.2.94.37,1.23.16.29.38.49.65.6.27.11.58.16.93.16.65,0,1.36-.13,2.13-.38l-.07,4.03c-.44.12-.86.19-1.26.23-.4.04-.78.05-1.16.05-1.19,0-2.2-.21-3.03-.61-.83-.41-1.51-.94-2.05-1.61-.54-.67-.93-1.43-1.17-2.29-.25-.86-.37-1.75-.37-2.66v-1.64c0-.68-.12-1.2-.35-1.58-.23-.37-.52-.65-.86-.82-.34-.17-.69-.28-1.05-.32-.36-.04-.68-.05-.96-.05v-3.92Z"/>
    <path class="cls-1" d="M509.41,222.93l-5,15.15c-.33,1.05-.73,2.11-1.21,3.19-.48,1.07-1.06,2.04-1.75,2.91-.69.86-1.49,1.57-2.42,2.12-.92.55-2,.82-3.24.82v-3.57c.61-.23,1.1-.6,1.47-1.09.37-.49.75-1.14,1.12-1.96.05-.12.12-.29.21-.51.09-.22.18-.46.26-.72.08-.26.16-.51.24-.75.08-.24.15-.44.19-.58l-5.43-14.95h5.01l2.06,5.81c.12.3.25.51.38.63.14.12.28.16.42.14.14-.02.27-.1.39-.23.12-.13.21-.3.28-.51l1.68-5.92h5.32Z"/>
    <path class="cls-5" d="M523.7,230.84v-3.92h11.9v3.92h-11.9Z"/>
    <path class="cls-5" d="M562.83,230.77v7.42h-4.9v-7.49l-7.98-15.58h5.64l3.4,6.93c.14.3.33.54.58.72.25.18.51.28.79.3.28.02.56-.04.83-.19.27-.15.5-.43.69-.82l3.3-6.93h5.67l-8.01,15.65Z"/>
    <path class="cls-5" d="M577.45,222.65c1.1,0,2.13.21,3.1.63.97.42,1.81.99,2.54,1.71.72.72,1.29,1.57,1.71,2.54s.63,2,.63,3.1-.21,2.13-.63,3.1c-.42.97-.99,1.81-1.71,2.52-.72.71-1.57,1.28-2.54,1.7-.97.42-2,.63-3.1.63s-2.17-.21-3.13-.63c-.97-.42-1.81-.99-2.54-1.7-.72-.71-1.29-1.55-1.71-2.52-.42-.97-.63-2-.63-3.1s.21-2.13.63-3.1.99-1.81,1.71-2.54c.72-.72,1.57-1.29,2.54-1.71.97-.42,2.01-.63,3.13-.63ZM577.45,234.55c.51,0,.95-.12,1.31-.37.36-.25.67-.55.91-.93.25-.37.43-.79.54-1.24.12-.46.17-.9.17-1.35s-.06-.93-.17-1.4c-.12-.47-.3-.89-.54-1.28-.24-.39-.55-.69-.91-.93-.36-.23-.8-.35-1.31-.35s-.99.12-1.37.35c-.37.23-.68.54-.93.93-.25.38-.42.81-.53,1.28-.1.47-.16.93-.16,1.4s.05.89.16,1.35c.11.46.28.87.53,1.24s.55.68.93.93c.37.25.83.37,1.37.37Z"/>
    <path class="cls-5" d="M595.3,234.27c.61,0,1.07-.15,1.4-.44.33-.29.57-.65.72-1.07.15-.42.24-.88.26-1.37.02-.49.04-.95.04-1.37v-7.02h4.9v15.19h-4.2l-.74-1.84c-.3.37-.63.68-.98.94-.3.23-.66.44-1.07.62-.41.18-.85.28-1.31.28-1.17,0-2.12-.19-2.85-.56-.74-.37-1.31-.89-1.72-1.56s-.68-1.46-.82-2.38c-.14-.92-.21-1.92-.21-2.99v-7.7h5v7.97c0,.3.02.65.07,1.04s.13.74.26,1.07c.13.33.29.61.49.84.2.23.45.35.75.35Z"/>
    <path class="cls-5" d="M611.89,238.19h-4.9v-15.19h4.2l.74,1.86c.65-.75,1.46-1.27,2.42-1.56.96-.29,2.16-.38,3.6-.26v4.1c-.56-.07-1.07-.11-1.54-.12s-.86-.02-1.19-.02c-.89,0-1.66.35-2.31,1.05-.65.7-.99,1.7-1.01,3.01v7.14Z"/>
    <path class="cls-1" d="M638.35,219.12v5.95h8.16v3.92h-3.96c-1.33,0-2.36.35-3.1,1.05s-1.1,1.67-1.1,2.91v5.25h-4.9v-23.07h15.75v3.99h-10.85Z"/>
    <path class="cls-1" d="M658.2,234.27c.61,0,1.07-.15,1.4-.44.33-.29.57-.65.72-1.07.15-.42.24-.88.26-1.37.02-.49.04-.95.04-1.37v-7.02h4.9v15.19h-4.19l-.74-1.84c-.3.37-.63.68-.98.94-.3.23-.66.44-1.07.62s-.85.28-1.31.28c-1.17,0-2.12-.19-2.85-.56s-1.31-.89-1.71-1.56-.68-1.46-.82-2.38c-.14-.92-.21-1.92-.21-2.99v-7.7h5v7.97c0,.3.02.65.07,1.04s.13.74.26,1.07c.13.33.29.61.49.84.2.23.45.35.75.35Z"/>
    <path class="cls-1" d="M668.49,223h3.22v-4.55h4.9v4.55h3.71v3.92h-3.71v3.62c0,.84.04,1.53.12,2.06.08.53.2.94.37,1.23.16.29.38.49.65.6.27.11.58.16.93.16.65,0,1.36-.13,2.13-.38l-.07,4.03c-.44.12-.86.19-1.26.23-.4.04-.78.05-1.16.05-1.19,0-2.2-.21-3.03-.61-.83-.41-1.51-.94-2.05-1.61-.54-.67-.93-1.43-1.17-2.29-.25-.86-.37-1.75-.37-2.66v-1.64c0-.68-.12-1.2-.35-1.58-.23-.37-.52-.65-.86-.82-.34-.17-.69-.28-1.05-.32-.36-.04-.68-.05-.96-.05v-3.92Z"/>
    <path class="cls-1" d="M690.96,234.27c.61,0,1.07-.15,1.4-.44.33-.29.57-.65.72-1.07.15-.42.24-.88.26-1.37.02-.49.04-.95.04-1.37v-7.02h4.9v15.19h-4.19l-.74-1.84c-.3.37-.63.68-.98.94-.3.23-.66.44-1.07.62s-.85.28-1.31.28c-1.17,0-2.12-.19-2.85-.56s-1.31-.89-1.71-1.56-.68-1.46-.82-2.38c-.14-.92-.21-1.92-.21-2.99v-7.7h5v7.97c0,.3.02.65.07,1.04s.13.74.26,1.07c.13.33.29.61.49.84.2.23.45.35.75.35Z"/>
    <path class="cls-1" d="M707.55,238.19h-4.9v-15.19h4.2l.74,1.86c.65-.75,1.46-1.27,2.42-1.56.96-.29,2.16-.38,3.61-.26v4.1c-.56-.07-1.07-.11-1.54-.12s-.86-.02-1.19-.02c-.89,0-1.66.35-2.31,1.05-.65.7-.99,1.7-1.02,3.01v7.14Z"/>
    <path class="cls-1" d="M721.79,232.31c-.63,0-1.06.12-1.28.37-.22.25-.33.47-.33.68,0,.19.04.36.12.51s.25.29.51.4c.26.12.62.21,1.09.28.47.07,1.07.1,1.82.1.58,0,1.26-.06,2.03-.19.77-.13,1.41-.27,1.93-.44v3.75c-.47.23-1.13.43-1.98.58s-1.65.23-2.4.23c-1.26,0-2.4-.21-3.41-.63-1.01-.42-1.88-.98-2.61-1.69-.72-.71-1.28-1.55-1.68-2.51-.4-.97-.6-2-.6-3.09s.21-2.13.63-3.11c.42-.98,1.01-1.83,1.77-2.55s1.65-1.29,2.68-1.71,2.15-.63,3.36-.63c.7,0,1.4.11,2.1.31.7.21,1.33.52,1.89.94s1.02.94,1.37,1.55c.35.62.53,1.33.53,2.14,0,1.42-.4,2.55-1.21,3.38-.81.84-1.94,1.28-3.41,1.33h-2.9ZM724.45,227.52c0-.09,0-.2-.02-.32-.01-.12-.06-.22-.16-.31-.09-.09-.23-.17-.42-.23-.19-.06-.46-.09-.8-.09-.28,0-.57.02-.88.07s-.6.15-.89.31c-.29.16-.56.41-.8.74-.24.33-.44.77-.58,1.33h2.42c.49,0,.88-.05,1.17-.16.29-.11.51-.24.65-.4.14-.16.23-.33.26-.51s.05-.32.05-.44Z"/>
  </g>
  <line class="cls-3" x1="2" y1="187.06" x2="736.8" y2="187.06"/>
  <path class="cls-4" d="M579.05,81.51l5.08-7.23c.18-.26-.15-.57-.4-.37l-14.5,11.89c-.13.1-.13.3-.01.41l13.89,13.18c.23.22.59-.07.42-.34l-4.81-8c-1.79-2.97-1.65-6.71.34-9.55Z"/>
  <path class="cls-4" d="M616.55,81.51l-5.08-7.23c-.18-.26.15-.57.4-.37l14.5,11.89c.13.1.13.3.01.41l-13.89,13.18c-.23.22-.59-.07-.42-.34l4.81-8c1.79-2.97,1.65-6.71-.34-9.55Z"/>
</svg>